# xmcd CD database file generated by Grip 2.96
# 
# Track frame offsets:
#       150
#       15709
#       32813
#       48882
#       66373
#       82533
#       96067
#       111709
#       129670
#       152007
#       162820
#       175532
# 
# Disc length: 2447 seconds
# 
# Revision: 0
# Processed by: cddbd v1.5.2PL0 Copyright (c) Steve Scherf et al.
# Submitted via: Grip 2.96
# 
DISCID=8d098d0c
DTITLE=Bibi Tanga and the Schenites - 40 Degrees of Sunshine
DYEAR=1900
DGENRE=
TTITLE0=Poet of the Soul
TTITLE1=My Heart is Jumping
TTITLE2=Banda A Gulkoua
TTITLE3=Can't Handle This
TTITLE4=Laughing Song
TTITLE5=Kangoya
TTITLE6=Do What You Wanna Do
TTITLE7=Dark Funk
TTITLE8=Happy Dustman
TTITLE9=People are Working
TTITLE10=40 Degrees of Sunshine
TTITLE11=Attraction
EXTD=
EXTT0=
EXTT1=
EXTT2=
EXTT3=
EXTT4=
EXTT5=
EXTT6=
EXTT7=
EXTT8=
EXTT9=
EXTT10=
EXTT11=
PLAYORDER=
